<svg width="152" height="35" viewBox="0 0 152 35" fill="cover" xmlns="http://www.w3.org/2000/svg">
<path d="M33.88 24V10H39.64C40.88 10 41.94 10.2 42.82 10.6C43.7133 11 44.4 11.5733 44.88 12.32C45.36 13.0667 45.6 13.9533 45.6 14.98C45.6 16.0067 45.36 16.8933 44.88 17.64C44.4 18.3733 43.7133 18.94 42.82 19.34C41.94 19.7267 40.88 19.92 39.64 19.92H35.32L36.48 18.74V24H33.88ZM43.04 24L39.5 18.92H42.28L45.84 24H43.04ZM36.48 19.02L35.32 17.78H39.52C40.6667 17.78 41.5267 17.5333 42.1 17.04C42.6867 16.5467 42.98 15.86 42.98 14.98C42.98 14.0867 42.6867 13.4 42.1 12.92C41.5267 12.44 40.6667 12.2 39.52 12.2H35.32L36.48 10.92V19.02ZM50.9089 15.82H57.8689V17.96H50.9089V15.82ZM51.1089 21.82H59.0089V24H48.5089V10H58.7289V12.18H51.1089V21.82ZM61.9073 24V10H64.0473L72.8273 20.78H71.7673V10H74.3473V24H72.2073L63.4273 13.22H64.4873V24H61.9073ZM80.9388 24V12.2H76.2988V10H88.1788V12.2H83.5388V24H80.9388ZM93.6773 24L99.9773 10H102.537L108.857 24H106.137L100.717 11.38H101.757L96.3573 24H93.6773ZM96.5773 20.76L97.2773 18.72H104.837L105.537 20.76H96.5773ZM114.036 24L107.916 10H110.736L116.196 22.66H114.576L120.096 10H122.696L116.596 24H114.036ZM127.091 24V12.2H122.451V10H134.331V12.2H129.691V24H127.091ZM142.647 24.2C141.554 24.2 140.547 24.02 139.627 23.66C138.707 23.3 137.907 22.8 137.227 22.16C136.547 21.5067 136.02 20.7467 135.647 19.88C135.274 19 135.087 18.04 135.087 17C135.087 15.96 135.274 15.0067 135.647 14.14C136.02 13.26 136.547 12.5 137.227 11.86C137.907 11.2067 138.707 10.7 139.627 10.34C140.547 9.98 141.547 9.8 142.627 9.8C143.72 9.8 144.72 9.98 145.627 10.34C146.547 10.7 147.347 11.2067 148.027 11.86C148.707 12.5 149.234 13.26 149.607 14.14C149.98 15.0067 150.167 15.96 150.167 17C150.167 18.04 149.98 19 149.607 19.88C149.234 20.76 148.707 21.52 148.027 22.16C147.347 22.8 146.547 23.3 145.627 23.66C144.72 24.02 143.727 24.2 142.647 24.2ZM142.627 21.92C143.334 21.92 143.987 21.8 144.587 21.56C145.187 21.32 145.707 20.98 146.147 20.54C146.587 20.0867 146.927 19.5667 147.167 18.98C147.42 18.38 147.547 17.72 147.547 17C147.547 16.28 147.42 15.6267 147.167 15.04C146.927 14.44 146.587 13.92 146.147 13.48C145.707 13.0267 145.187 12.68 144.587 12.44C143.987 12.2 143.334 12.08 142.627 12.08C141.92 12.08 141.267 12.2 140.667 12.44C140.08 12.68 139.56 13.0267 139.107 13.48C138.667 13.92 138.32 14.44 138.067 15.04C137.827 15.6267 137.707 16.28 137.707 17C137.707 17.7067 137.827 18.36 138.067 18.96C138.32 19.56 138.667 20.0867 139.107 20.54C139.547 20.98 140.067 21.32 140.667 21.56C141.267 21.8 141.92 21.92 142.627 21.92Z" fill="#242424"/>
<path d="M4.72484 19.1975C5.91484 19.1975 6.99984 19.635 7.83984 20.37L10.0973 19.0575C9.93984 18.55 9.86984 18.0075 9.86984 17.4475C9.86984 16.8875 9.93984 16.345 10.0448 15.8375L7.89234 14.56C7.05234 15.33 5.93234 15.75 4.72484 15.75C2.11734 15.75 -0.000156403 13.6675 -0.000156403 11.06C-0.000156403 8.4525 2.11734 6.3525 4.72484 6.3525C7.33234 6.3525 9.44984 8.47 9.44984 11.0775C9.44984 11.375 9.41484 11.725 9.36234 12.04L11.5498 13.3C12.3023 12.5125 13.2998 11.935 14.4198 11.6375V9.205C12.5123 8.5925 11.1298 6.8075 11.1298 4.7075C11.1298 2.1 13.2473 0 15.8548 0C18.4623 0 20.5448 2.1 20.5448 4.7075C20.5448 6.8075 19.2148 8.575 17.3248 9.205V11.655C19.9148 12.32 21.8398 14.6475 21.8398 17.4475C21.8398 20.2475 19.9148 22.5925 17.3248 23.24V25.7775C19.2148 26.4075 20.5448 28.175 20.5448 30.275C20.5448 32.8825 18.4623 35 15.8548 35C13.2473 35 11.1298 32.8825 11.1298 30.275C11.1298 28.175 12.5123 26.39 14.4198 25.7775V23.2575C13.2998 22.9775 12.3198 22.4 11.5498 21.6125L9.34484 22.89C9.41484 23.2225 9.44984 23.555 9.44984 23.905C9.44984 26.5125 7.33234 28.63 4.72484 28.63C2.11734 28.63 -0.000156403 26.5125 -0.000156403 23.905C-0.000156403 21.2975 2.11734 19.1975 4.72484 19.1975ZM4.72484 8.75C3.42984 8.75 2.39734 9.7825 2.39734 11.06C2.39734 12.3375 3.42984 13.405 4.72484 13.405C6.01984 13.405 7.05234 12.355 7.05234 11.06C7.05234 9.765 6.01984 8.75 4.72484 8.75ZM18.1823 4.7075C18.1823 3.4125 17.1498 2.3625 15.8548 2.3625C14.5598 2.3625 13.5448 3.4125 13.5448 4.7075C13.5448 6.0025 14.5598 7.0525 15.8548 7.0525C17.1498 7.0525 18.1823 6.0025 18.1823 4.7075ZM13.5448 30.275C13.5448 31.57 14.5598 32.62 15.8548 32.62C17.1498 32.62 18.1823 31.57 18.1823 30.275C18.1823 28.98 17.1498 27.93 15.8548 27.93C14.5598 27.93 13.5448 28.98 13.5448 30.275ZM15.8548 20.8075C17.7098 20.8075 19.2148 19.3025 19.2148 17.4475C19.2148 15.5925 17.7098 14.0875 15.8548 14.0875C13.9998 14.0875 12.4948 15.5925 12.4948 17.4475C12.4948 19.3025 13.9998 20.8075 15.8548 20.8075ZM4.72484 26.25C6.01984 26.25 7.05234 25.2 7.05234 23.905C7.05234 22.61 6.01984 21.5775 4.72484 21.5775C3.42984 21.5775 2.39734 22.6275 2.39734 23.905C2.39734 25.1825 3.42984 26.25 4.72484 26.25Z" fill="#242424"/>
</svg>
