<svg width="18" height="20" viewBox="0 0 18 20" fill="none" xmlns="http://www.w3.org/2000/svg">
<path d="M0.0130765 10.0518C0.0130765 15.526 3.62546 19.3137 9.21235 19.2696C12.5311 19.2696 15.0939 18.0494 16.3102 15.988H14.4218C13.498 17.2502 11.6493 18.0084 9.21235 18.0084C4.3815 18.0084 1.44126 14.8529 1.39394 10.0518C1.35199 5.04608 4.79661 1.84857 9.20805 1.84857C14.0389 1.80657 16.6017 5.13008 16.6017 8.4956C16.5597 12.0291 15.0896 13.4173 13.8711 13.4173C12.9033 13.4173 12.4849 13.0382 12.4849 12.0711C12.4843 11.8025 12.5124 11.5346 12.5688 11.272L13.5765 5.38209H12.1483L11.8966 6.89631C11.682 6.34497 11.2975 5.87644 10.799 5.55867C10.3005 5.2409 9.71384 5.0904 9.12417 5.12901C6.39364 5.12901 4.54496 7.77942 4.54496 10.8078C4.54496 13.1632 5.80537 14.5945 7.69599 14.5945C8.3717 14.5979 9.03597 14.4198 9.61966 14.0789C10.2033 13.738 10.6851 13.2466 11.0148 12.6559H11.0567C11.1406 13.8761 12.0644 14.5945 13.6195 14.5945C15.8037 14.5945 17.946 12.8272 17.9879 8.49452C17.9879 4.49791 14.753 0.501287 9.20805 0.501287C7.96542 0.479823 6.73168 0.714845 5.5837 1.19171C4.43572 1.66857 3.3981 2.37706 2.53548 3.27304C1.67286 4.16901 1.00373 5.23327 0.569761 6.39952C0.135795 7.56577 -0.0537012 8.80902 0.0130765 10.0518ZM11.5202 8.87361C11.5202 11.1869 10.2179 13.4173 8.03368 13.4173C6.81521 13.4173 5.89141 12.4481 5.89141 10.7249C5.89141 8.5376 7.19376 6.35028 9.29409 6.35028C10.6825 6.35459 11.5235 7.23878 11.5235 8.879L11.5202 8.87361Z" fill="#242424"/>
</svg>
