<svg width="11" height="10" viewBox="0 0 11 10" fill="none" xmlns="http://www.w3.org/2000/svg">
<g clip-path="url(#clip0_51_2586)">
<path d="M1.52002 0.5L1.10002 1.58L0.0200195 2L1.10002 2.42L1.52002 3.5L1.88002 2.42L3.02002 2L1.88002 1.58L1.52002 0.5ZM10.52 5.48C10.5319 6.28007 10.3047 7.06547 9.86758 7.73567C9.43046 8.40587 8.80328 8.93038 8.06632 9.24206C7.32936 9.55373 6.51616 9.63839 5.73081 9.48519C4.94545 9.332 4.22369 8.94792 3.65789 8.38213C3.0921 7.81633 2.70802 7.09456 2.55483 6.30921C2.40163 5.52386 2.48629 4.71066 2.79796 3.9737C3.10964 3.23674 3.63415 2.60956 4.30435 2.17244C4.97455 1.73532 5.75995 1.50815 6.56002 1.52C6.47878 2.05873 6.52517 2.60901 6.69545 3.12654C6.86572 3.64407 7.15514 4.11439 7.54038 4.49964C7.92563 4.88488 8.39595 5.1743 8.91348 5.34457C9.43101 5.51485 9.98129 5.56124 10.52 5.48Z" fill="white"/>
</g>
<defs>
<clipPath id="clip0_51_2586">
<rect width="11" height="10" fill="white"/>
</clipPath>
</defs>
</svg>
