<svg width="21" height="21" viewBox="0 0 23 21" fill="none" xmlns="http://www.w3.org/2000/svg">
<g clip-path="url(#clip0_24_50)" filter="url(#filter0_d_24_50)">
<path d="M22.4821 1.6905C22.2204 1.70198 21.974 1.77371 21.7549 1.85405H21.7519C21.5298 1.93726 20.474 2.35617 18.8705 2.99028C17.267 3.62727 15.1858 4.45362 13.1198 5.27423C8.99399 6.91259 4.93812 8.52513 4.93812 8.52513L4.9868 8.50791C4.9868 8.50791 4.70687 8.59399 4.41478 8.78336C4.26569 8.87518 4.10138 9.00143 3.95838 9.19941C3.81537 9.39739 3.69975 9.70153 3.74235 10.0143C3.81233 10.5451 4.17745 10.8636 4.43912 11.0386C4.70383 11.2165 4.95637 11.2997 4.95637 11.2997H4.96246L8.76579 12.5077C8.93618 13.0242 9.92504 16.0885 10.1624 16.7944C10.3023 17.2162 10.4393 17.4801 10.6096 17.681C10.6918 17.7843 10.7892 17.8704 10.9048 17.9392C10.9504 17.9651 10.9991 17.9851 11.0478 18.0024C11.063 18.011 11.0782 18.0138 11.0965 18.0167L11.0569 18.0081C11.0691 18.011 11.0782 18.0196 11.0873 18.0224C11.1178 18.031 11.1391 18.0339 11.1786 18.0397C11.7811 18.2118 12.2649 17.8589 12.2649 17.8589L12.2922 17.8388L14.5377 15.9107L18.3015 18.6336L18.3867 18.668C19.1717 18.9923 19.9658 18.8115 20.3857 18.493C20.8087 18.1716 20.973 17.7613 20.973 17.7613L21.0003 17.6953L23.9091 3.64448C23.9913 3.2973 24.0126 2.97307 23.9213 2.65745C23.83 2.34183 23.5957 2.04629 23.3128 1.88848C23.0268 1.7278 22.7438 1.67902 22.4821 1.6905ZM22.403 3.19687C22.4 3.24278 22.4091 3.23704 22.3878 3.32599V3.3346L19.5064 17.2391C19.4942 17.2592 19.4729 17.3023 19.4151 17.3453C19.3543 17.3912 19.3056 17.4199 19.053 17.3252L14.4495 13.9968L11.6685 16.387L12.2527 12.8692C12.2527 12.8692 19.4638 6.53098 19.7741 6.25839C20.0845 5.98581 19.981 5.92843 19.981 5.92843C20.0023 5.59559 19.5125 5.83087 19.5125 5.83087L10.0285 11.3715L10.0255 11.3571L5.47971 9.91386V9.91099C5.47667 9.91099 5.47058 9.90812 5.46754 9.90812C5.47058 9.90812 5.49188 9.89951 5.49188 9.89951L5.51622 9.88803L5.54056 9.87943C5.54056 9.87943 9.59948 8.26689 13.7253 6.62853C15.7913 5.80792 17.8725 4.98157 19.4729 4.34458C21.0734 3.71047 22.257 3.24565 22.3239 3.21983C22.3878 3.19687 22.3574 3.19687 22.403 3.19687Z" fill="#242424"/>
</g>
<defs>
<filter id="filter0_d_24_50" x="0" y="0" width="27" height="24" filterUnits="userSpaceOnUse" color-interpolation-filters="sRGB">
<feFlood flood-opacity="0" result="BackgroundImageFix"/>
<feColorMatrix in="SourceAlpha" type="matrix" values="0 0 0 0 0 0 0 0 0 0 0 0 0 0 0 0 0 0 127 0" result="hardAlpha"/>
<feOffset dy="2"/>
<feGaussianBlur stdDeviation="1.5"/>
<feComposite in2="hardAlpha" operator="out"/>
<feColorMatrix type="matrix" values="0 0 0 0 0 0 0 0 0 0 0 0 0 0 0 0 0 0 0.15 0"/>
<feBlend mode="normal" in2="BackgroundImageFix" result="effect1_dropShadow_24_50"/>
<feBlend mode="normal" in="SourceGraphic" in2="effect1_dropShadow_24_50" result="shape"/>
</filter>
<clipPath id="clip0_24_50">
<rect width="21" height="18" fill="white" transform="translate(4 1)"/>
</clipPath>
</defs>
</svg>
