<svg width="20" height="20" viewBox="0 0 20 20" fill="none" xmlns="http://www.w3.org/2000/svg">
<path d="M16.3773 3.50019C15.5318 2.61308 14.5256 1.90972 13.4171 1.43093C12.3086 0.952138 11.1198 0.707451 9.91974 0.711069C7.49893 0.713971 5.17808 1.71699 3.46631 3.50008C1.75454 5.28316 0.79164 7.70072 0.788853 10.2224C0.787432 11.8913 1.20718 13.5313 2.00602 14.978L0.710938 19.9048L5.55435 18.581C6.89199 19.3416 8.39156 19.7402 9.91553 19.7403C12.3462 19.7413 14.6789 18.7422 16.4059 16.9605C18.1329 15.1787 19.1145 12.7586 19.137 10.2268C19.124 8.97165 18.8736 7.7315 18.4 6.57729C17.9265 5.42307 17.2391 4.37743 16.3773 3.50019ZM9.91974 18.1357C8.55986 18.1379 7.22444 17.7591 6.05343 17.0389L5.77757 16.8678L2.90732 17.6465L3.67279 14.7291L3.49169 14.4297C2.73193 13.1693 2.33037 11.7106 2.33348 10.2224C2.33655 8.12658 3.13731 6.11755 4.56019 4.63579C5.98308 3.15403 7.91197 2.32047 9.92395 2.31786C10.9208 2.31467 11.9083 2.51791 12.8291 2.91576C13.7498 3.31362 14.5855 3.89814 15.2875 4.63537C16.0065 5.36367 16.5805 6.2327 16.9764 7.19258C17.3722 8.15247 17.5823 9.18433 17.5944 10.229C17.5725 12.3341 16.7543 14.3452 15.3173 15.8256C13.8804 17.306 11.9408 18.1361 9.91974 18.1357ZM14.0819 12.2131C13.8555 12.0935 12.7331 11.5188 12.5236 11.4453C12.3141 11.3718 12.1614 11.3258 12.0098 11.5649C11.8582 11.804 11.4212 12.3326 11.2854 12.4993C11.1495 12.666 11.0179 12.6792 10.7916 12.5596C9.4773 12.0124 8.38184 11.0141 7.68651 9.72993C7.45171 9.30986 7.92131 9.34057 8.35721 8.43134C8.38702 8.36565 8.4007 8.29328 8.39703 8.22073C8.39335 8.14818 8.37243 8.07771 8.33616 8.01566C8.27825 7.89611 7.82233 6.72584 7.63281 6.25093C7.44328 5.77602 7.25902 5.8528 7.11898 5.84402C6.97895 5.83525 6.8347 5.83525 6.68308 5.83525C6.56756 5.83848 6.45392 5.86644 6.34922 5.91739C6.24452 5.96833 6.15101 6.04118 6.07449 6.13138C5.8168 6.38625 5.61278 6.69414 5.47539 7.03551C5.338 7.37688 5.27023 7.74427 5.27638 8.11437C5.35177 9.01037 5.67468 9.86445 6.20611 10.5734C7.18492 12.1007 8.52719 13.3375 10.1019 14.1631C10.9296 14.6619 11.8893 14.8707 12.8395 14.7587C13.1571 14.6916 13.4579 14.5564 13.7228 14.3618C13.9876 14.1671 14.2107 13.9172 14.3778 13.6279C14.5272 13.2742 14.5744 12.8827 14.5136 12.5015C14.461 12.3918 14.3083 12.3304 14.083 12.2141L14.0819 12.2131Z" fill="#242424"/>
</svg>
