<svg width="11" height="10" viewBox="0 0 11 10" fill="none" xmlns="http://www.w3.org/2000/svg">
<g clip-path="url(#clip0_24_19)">
<path d="M1.51953 0.5L1.09953 1.58L0.0195312 2L1.09953 2.42L1.51953 3.5L1.87953 2.42L3.01953 2L1.87953 1.58L1.51953 0.5V0.5ZM10.5195 5.48C10.5314 6.28007 10.3042 7.06547 9.86709 7.73567C9.42997 8.40587 8.80279 8.93038 8.06583 9.24206C7.32887 9.55373 6.51567 9.63839 5.73032 9.48519C4.94497 9.332 4.2232 8.94792 3.6574 8.38213C3.09161 7.81633 2.70753 7.09456 2.55434 6.30921C2.40114 5.52386 2.4858 4.71066 2.79748 3.9737C3.10915 3.23674 3.63366 2.60956 4.30386 2.17244C4.97406 1.73532 5.75946 1.50815 6.55953 1.52C6.47829 2.05873 6.52468 2.60901 6.69496 3.12654C6.86524 3.64407 7.15465 4.11439 7.53989 4.49964C7.92514 4.88488 8.39546 5.1743 8.91299 5.34457C9.43052 5.51485 9.9808 5.56124 10.5195 5.48V5.48Z" fill="white"/>
</g>
<defs>
<clipPath id="clip0_24_19">
<rect width="11" height="10" fill="white"/>
</clipPath>
</defs>
</svg>
